<?xml version="1.0" encoding="utf-8"?>
<!-- Generator: Adobe Illustrator 17.1.0, SVG Export Plug-In . SVG Version: 6.00 Build 0)  -->
<!DOCTYPE svg PUBLIC "-//W3C//DTD SVG 1.1//EN" "http://www.w3.org/Graphics/SVG/1.1/DTD/svg11.dtd">
<svg version="1.1" id="Layer_1" xmlns="http://www.w3.org/2000/svg" xmlns:xlink="http://www.w3.org/1999/xlink" x="0px" y="0px"
	 viewBox="21.7 211 634.3 80" enable-background="new 21.7 211 634.3 80" xml:space="preserve">
<text transform="matrix(1 0 0 1 77.5801 275.1709)" font-family="'GatsbyFLF-Bold'" font-size="77.7188">WELCOME</text>
<text transform="matrix(1 0 0 1 311.0435 275.1709)" font-family="'GatsbyFLF-Bold'" font-size="77.7188" letter-spacing="-1"> </text>
<text transform="matrix(1 0 0 1 329.6963 275.1709)" font-family="'GatsbyFLF-Bold'" font-size="77.7188">TO</text>
<text transform="matrix(1 0 0 1 408.8135 275.1709)" font-family="'GatsbyFLF-Bold'" font-size="77.7188" letter-spacing="-5"> </text>
<text transform="matrix(1 0 0 1 422.8027 275.1709)" font-family="'GatsbyFLF-Bold'" font-size="77.7188">RA</text>
<text transform="matrix(1 0 0 1 481.7119 275.1709)" font-family="'GatsbyFLF-Bold'" font-size="77.7188" letter-spacing="-4">P</text>
<text transform="matrix(1 0 0 1 500.5186 275.1709)" font-family="'GatsbyFLF-Bold'" font-size="77.7188">T</text>
<text transform="matrix(1 0 0 1 525.3887 275.1709)" font-family="'GatsbyFLF-Bold'" font-size="77.7188">URE</text>
<text transform="matrix(1 0 0 1 24.8336 274.4775)" font-family="'BergamotOrnaments'" font-size="58.2891">Z</text>
<text transform="matrix(1 0 0 1 610.8486 274.4775)" font-family="'BergamotOrnaments'" font-size="58.2891">Y</text>
</svg>
