<?xml version="1.0" encoding="utf-8"?>
<!-- Generator: Adobe Illustrator 17.1.0, SVG Export Plug-In . SVG Version: 6.00 Build 0)  -->
<!DOCTYPE svg PUBLIC "-//W3C//DTD SVG 1.1//EN" "http://www.w3.org/Graphics/SVG/1.1/DTD/svg11.dtd">
<svg version="1.1" id="Layer_1" xmlns="http://www.w3.org/2000/svg" xmlns:xlink="http://www.w3.org/1999/xlink" x="0px" y="0px"
	 viewBox="0 0 648 504" enable-background="new 0 0 648 504" xml:space="preserve">
<text transform="matrix(1 0 0 1 69.5801 278.1709)" font-family="'GatsbyFLF-Bold'" font-size="77.7188">WELCOME</text>
<text transform="matrix(1 0 0 1 303.0435 278.1709)" font-family="'GatsbyFLF-Bold'" font-size="77.7188" letter-spacing="-2"> </text>
<text transform="matrix(1 0 0 1 321.6963 278.1709)" font-family="'GatsbyFLF-Bold'" font-size="77.7188">TO</text>
<text transform="matrix(1 0 0 1 400.8135 278.1709)" font-family="'GatsbyFLF-Bold'" font-size="77.7188" letter-spacing="-6"> </text>
<text transform="matrix(1 0 0 1 414.8027 278.1709)" font-family="'GatsbyFLF-Bold'" font-size="77.7188">RA</text>
<text transform="matrix(1 0 0 1 473.7119 278.1709)" font-family="'GatsbyFLF-Bold'" font-size="77.7188" letter-spacing="-5">P</text>
<text transform="matrix(1 0 0 1 492.5186 278.1709)" font-family="'GatsbyFLF-Bold'" font-size="77.7188" letter-spacing="-1">T</text>
<text transform="matrix(1 0 0 1 517.3887 278.1709)" font-family="'GatsbyFLF-Bold'" font-size="77.7188">URE</text>
<text transform="matrix(1 0 0 1 16.8336 277.4775)" font-family="'BergamotOrnaments'" font-size="58.2891">Z</text>
<text transform="matrix(1 0 0 1 602.8486 277.4775)" font-family="'BergamotOrnaments'" font-size="58.2891">Y</text>
</svg>
