<?xml version="1.0" encoding="utf-8"?>
<!-- Generator: Adobe Illustrator 17.1.0, SVG Export Plug-In . SVG Version: 6.00 Build 0)  -->
<!DOCTYPE svg PUBLIC "-//W3C//DTD SVG 1.1//EN" "http://www.w3.org/Graphics/SVG/1.1/DTD/svg11.dtd">
<svg version="1.1" id="Layer_1" xmlns="http://www.w3.org/2000/svg" xmlns:xlink="http://www.w3.org/1999/xlink" x="0px" y="0px"
	 viewBox="0 0 556 58" enable-background="new 0 0 556 58" xml:space="preserve">
<g>
	<path d="M74.976,9.389l8.041,28.933l6.941-29.07h3.505L83.291,51.928L74.976,21.69L66.66,51.928L56.489,9.251h3.505l6.941,29.001
		L74.976,9.389z"/>
	<path d="M112.499,20.109h-11.546v15.325c0,4.124,1.007,7.103,3.024,8.934c2.016,1.833,4.856,2.749,8.522,2.749v3.299
		c-2.062,0-3.998-0.275-5.807-0.825c-1.811-0.55-3.402-1.409-4.776-2.577s-2.452-2.68-3.23-4.536
		c-0.78-1.855-1.168-4.112-1.168-6.77v-15.6h-1.306v-3.436h1.306V9.251h14.982v3.436h-11.546v3.986h11.546V20.109z"/>
	<path d="M133.733,46.706v3.436h-15.394V9.251h3.436v37.455H133.733z"/>
	<path d="M148.234,50.142c-2.612-0.458-4.926-1.338-6.941-2.642c-2.017-1.304-3.711-2.881-5.085-4.733
		c-1.375-1.852-2.417-3.911-3.127-6.174c-0.711-2.264-1.065-4.562-1.065-6.896c0-2.332,0.354-4.631,1.065-6.895
		c0.71-2.263,1.752-4.322,3.127-6.174c1.375-1.852,3.069-3.431,5.085-4.734c2.016-1.304,4.33-2.184,6.941-2.642v3.431
		c-2.017,0.366-3.814,1.099-5.395,2.196c-1.581,1.097-2.921,2.423-4.021,3.979c-1.099,1.555-1.936,3.271-2.508,5.146
		c-0.573,1.876-0.859,3.774-0.859,5.694c0,1.921,0.286,3.819,0.859,5.694c0.572,1.876,1.409,3.591,2.508,5.146
		c1.1,1.555,2.44,2.882,4.021,3.979c1.581,1.097,3.378,1.83,5.395,2.195V50.142z"/>
	<path d="M188.917,37.909c-1.1,2.566-2.611,4.811-4.536,6.735s-4.169,3.437-6.735,4.536c-2.566,1.099-5.315,1.649-8.247,1.649
		c-2.933,0-5.681-0.55-8.247-1.649c-2.566-1.1-4.811-2.612-6.735-4.536s-3.437-4.168-4.536-6.735
		c-1.1-2.565-1.649-5.314-1.649-8.247c0-2.932,0.55-5.681,1.649-8.247c1.099-2.565,2.611-4.811,4.536-6.735s4.168-3.436,6.735-4.536
		c2.565-1.1,5.314-1.649,8.247-1.649c2.932,0,5.681,0.55,8.247,1.649c2.565,1.1,4.811,2.611,6.735,4.536s3.436,4.169,4.536,6.735
		c1.1,2.566,1.649,5.315,1.649,8.247C190.567,32.595,190.017,35.343,188.917,37.909z M152.941,36.534
		c0.938,2.154,2.21,4.032,3.814,5.635c1.603,1.604,3.481,2.876,5.635,3.814c2.153,0.939,4.443,1.409,6.873,1.409
		c2.428,0,4.718-0.469,6.872-1.409c2.153-0.938,4.031-2.21,5.636-3.814c1.603-1.603,2.875-3.481,3.814-5.635
		c0.938-2.153,1.409-4.443,1.409-6.872c0-2.428-0.47-4.718-1.409-6.873c-0.939-2.153-2.211-4.031-3.814-5.635
		c-1.604-1.603-3.482-2.875-5.636-3.814c-2.154-0.938-4.444-1.409-6.872-1.409c-2.429,0-4.719,0.471-6.873,1.409
		c-2.154,0.939-4.032,2.211-5.635,3.814c-1.604,1.604-2.875,3.482-3.814,5.635c-0.94,2.154-1.409,4.444-1.409,6.873
		C151.532,32.091,152.001,34.381,152.941,36.534z"/>
	<path d="M209.191,17.704l7.697-8.865l10.583,41.303h-3.505l-8.796-34.018l-5.979,6.941l-5.979-6.872l-8.659,33.949h-3.574
		l10.583-41.303L209.191,17.704z"/>
	<path d="M244.791,20.109h-11.546v15.325c0,4.124,1.007,7.103,3.024,8.934c2.016,1.833,4.856,2.749,8.522,2.749v3.299
		c-2.062,0-3.998-0.275-5.807-0.825c-1.811-0.55-3.402-1.409-4.776-2.577s-2.452-2.68-3.23-4.536
		c-0.78-1.855-1.168-4.112-1.168-6.77v-15.6h-1.306v-3.436h1.306V9.251h14.982v3.436h-11.546v3.986h11.546V20.109z"/>
	<path d="M284.374,12.687h-7.216v37.455h-3.437V12.687h-7.216V9.251h17.868V12.687z"/>
	<path d="M324.165,37.909c-1.1,2.566-2.611,4.811-4.536,6.735c-1.924,1.924-4.169,3.437-6.734,4.536
		c-2.566,1.099-5.315,1.649-8.247,1.649c-2.933,0-5.682-0.55-8.247-1.649c-2.566-1.1-4.811-2.612-6.734-4.536
		c-1.925-1.924-3.437-4.168-4.536-6.735c-1.1-2.565-1.649-5.314-1.649-8.247c0-2.932,0.55-5.681,1.649-8.247
		c1.1-2.565,2.611-4.811,4.536-6.735c1.924-1.924,4.168-3.436,6.734-4.536c2.565-1.1,5.314-1.649,8.247-1.649
		c2.932,0,5.681,0.55,8.247,1.649c2.565,1.1,4.811,2.611,6.734,4.536c1.925,1.924,3.437,4.169,4.536,6.735
		c1.1,2.566,1.649,5.315,1.649,8.247C325.814,32.595,325.265,35.343,324.165,37.909z M288.188,36.534
		c0.938,2.154,2.21,4.032,3.814,5.635c1.603,1.604,3.48,2.876,5.635,3.814c2.153,0.939,4.443,1.409,6.872,1.409
		s4.719-0.469,6.873-1.409c2.152-0.938,4.031-2.21,5.635-3.814c1.604-1.603,2.875-3.481,3.814-5.635
		c0.938-2.153,1.409-4.443,1.409-6.872c0-2.428-0.471-4.718-1.409-6.873c-0.939-2.153-2.211-4.031-3.814-5.635
		c-1.604-1.603-3.482-2.875-5.635-3.814c-2.154-0.938-4.444-1.409-6.873-1.409s-4.719,0.471-6.872,1.409
		c-2.154,0.939-4.032,2.211-5.635,3.814c-1.604,1.604-2.876,3.482-3.814,5.635c-0.939,2.154-1.409,4.444-1.409,6.873
		C286.779,32.091,287.249,34.381,288.188,36.534z"/>
	<path d="M359.282,50.554c-3.299-1.372-6.037-3.109-8.213-5.214c-2.177-2.104-3.7-4.665-4.57-7.684v12.487h-3.573V9.251
		c2.611,0.092,4.982,0.435,7.113,1.03c2.13,0.595,3.962,1.476,5.497,2.642s2.726,2.619,3.574,4.356
		c0.847,1.739,1.271,3.773,1.271,6.105c0,2.059-0.287,3.854-0.859,5.386c-0.573,1.533-1.363,2.824-2.371,3.876
		c-1.008,1.053-2.165,1.921-3.471,2.607s-2.669,1.188-4.089,1.509c0.642,2.379,1.821,4.38,3.539,6.003
		c1.719,1.624,3.769,2.985,6.151,4.083V50.554z M356.224,18.941c-0.573-1.282-1.34-2.371-2.302-3.264
		c-0.963-0.894-2.086-1.603-3.368-2.13c-1.283-0.526-2.657-0.859-4.123-0.997v21.579c3.069-0.32,5.611-1.375,7.628-3.161
		c2.016-1.787,3.024-4.33,3.024-7.628C357.083,21.69,356.796,20.224,356.224,18.941z"/>
	<path d="M363.062,50.142l2.199-6.598h-2.199l0.412-3.436h3.023l10.996-32.506l14.363,42.54h-3.711l-2.199-6.598h-16.975
		l-2.199,6.598H363.062z M370.14,40.108h14.638l-7.284-21.717L370.14,40.108z"/>
	<path d="M395.085,9.251c2.611,0,4.982,0.297,7.113,0.893c2.13,0.595,3.974,1.486,5.532,2.676c1.557,1.19,2.76,2.664,3.607,4.425
		c0.848,1.761,1.271,3.808,1.271,6.14c0,2.059-0.367,3.923-1.1,5.591c-0.733,1.67-1.741,3.099-3.023,4.289
		c-1.283,1.19-2.783,2.15-4.501,2.881c-1.719,0.732-3.54,1.19-5.464,1.373v12.624h-3.437V9.251z M408.314,18.941
		c-0.573-1.282-1.34-2.371-2.302-3.264c-0.963-0.894-2.086-1.603-3.368-2.13c-1.283-0.526-2.657-0.859-4.123-0.997v21.579
		c3.069-0.32,5.611-1.375,7.628-3.161c2.016-1.787,3.024-4.33,3.024-7.628C409.174,21.69,408.887,20.224,408.314,18.941z"/>
	<path d="M429.516,12.687H422.3v37.455h-3.437V12.687h-7.216V9.251h17.868V12.687z"/>
	<path d="M437.693,40.589c0,4.398,2.106,6.598,6.322,6.598c4.215,0,6.323-2.199,6.323-6.598V9.251h3.436v31.338
		c0,3.254-0.848,5.739-2.543,7.457c-1.695,1.718-4.101,2.577-7.216,2.577c-3.116,0-5.521-0.859-7.216-2.577
		c-1.695-1.718-2.543-4.203-2.543-7.457V9.251h3.437V40.589z"/>
	<path d="M475.49,50.554c-3.299-1.372-6.037-3.109-8.213-5.214c-2.177-2.104-3.7-4.665-4.57-7.684v12.487h-3.573V9.251
		c2.611,0.092,4.982,0.435,7.113,1.03c2.13,0.595,3.962,1.476,5.497,2.642s2.726,2.619,3.574,4.356
		c0.847,1.739,1.271,3.773,1.271,6.105c0,2.059-0.287,3.854-0.859,5.386c-0.573,1.533-1.363,2.824-2.371,3.876
		c-1.008,1.053-2.165,1.921-3.471,2.607s-2.669,1.188-4.089,1.509c0.642,2.379,1.821,4.38,3.539,6.003
		c1.719,1.624,3.769,2.985,6.151,4.083V50.554z M472.432,18.941c-0.573-1.282-1.34-2.371-2.302-3.264
		c-0.963-0.894-2.086-1.603-3.368-2.13c-1.283-0.526-2.657-0.859-4.123-0.997v21.579c3.069-0.32,5.611-1.375,7.628-3.161
		c2.016-1.787,3.024-4.33,3.024-7.628C473.291,21.69,473.004,20.224,472.432,18.941z"/>
	<path d="M496.725,20.109H485.18v15.325c0,4.124,1.007,7.103,3.023,8.934c2.016,1.833,4.855,2.749,8.521,2.749v3.299
		c-2.062,0-3.997-0.275-5.807-0.825c-1.811-0.55-3.402-1.409-4.776-2.577c-1.375-1.168-2.451-2.68-3.23-4.536
		s-1.168-4.112-1.168-6.77v-15.6h-1.306v-3.436h1.306V9.251h14.981v3.436H485.18v3.986h11.545V20.109z"/>
</g>
<g>
	<path d="M11.617,27.341l32.472,1.134l-32.472,1.186V27.341z M18.936,14.713l25.153,13.762L17.905,16.827L18.936,14.713z
		 M17.905,40.175l26.184-11.7L18.936,42.237L17.905,40.175z M28.678,7.291l15.411,21.184L26.822,8.734L28.678,7.291z M26.822,48.268
		l17.267-19.792L28.678,49.711L26.822,48.268z"/>
</g>
<g>
	<path d="M531.157,8.734L513.89,28.475l15.411-21.184L531.157,8.734z M540.073,16.827L513.89,28.475l25.153-13.762L540.073,16.827z
		 M546.362,29.661l-32.473-1.186l32.473-1.134V29.661z M539.043,42.237L513.89,28.475l26.184,11.7L539.043,42.237z M529.301,49.711
		L513.89,28.475l17.268,19.792L529.301,49.711z"/>
</g>
</svg>
